<svg xmlns="http://www.w3.org/2000/svg" width="48" height="46.017" viewBox="0 0 48 46.017"><path d="M173.875,12.223a5.734,5.734,0,0,1,.875.924H160V1.027a6.6,6.6,0,0,1,1.125.719ZM159,16.435h17V43.552a2.186,2.186,0,0,1-.875,1.746,3.238,3.238,0,0,1-2.125.719H131a3.238,3.238,0,0,1-2.125-.719A2.186,2.186,0,0,1,128,43.552V2.465a2.186,2.186,0,0,1,.875-1.746A3.238,3.238,0,0,1,131,0h25V13.97a2.186,2.186,0,0,0,.875,1.746A3.238,3.238,0,0,0,159,16.435Zm5,18.9V33.691a.731.731,0,0,0-.281-.591A1.1,1.1,0,0,0,163,32.87H141a1.1,1.1,0,0,0-.719.231.731.731,0,0,0-.281.591v1.643a.731.731,0,0,0,.281.591,1.1,1.1,0,0,0,.719.231h22a1.1,1.1,0,0,0,.719-.231A.731.731,0,0,0,164,35.335Zm0-6.574V27.117a.731.731,0,0,0-.281-.591A1.1,1.1,0,0,0,163,26.3H141a1.1,1.1,0,0,0-.719.231.731.731,0,0,0-.281.591v1.643a.731.731,0,0,0,.281.591,1.1,1.1,0,0,0,.719.231h22a1.1,1.1,0,0,0,.719-.231A.731.731,0,0,0,164,28.761Zm0-6.574V20.543a.731.731,0,0,0-.281-.591,1.1,1.1,0,0,0-.719-.231H141a1.1,1.1,0,0,0-.719.231.731.731,0,0,0-.281.591v1.643a.731.731,0,0,0,.281.591,1.1,1.1,0,0,0,.719.231h22a1.1,1.1,0,0,0,.719-.231A.731.731,0,0,0,164,22.187Z" transform="translate(-128)" fill="#221e41"/></svg>