<svg xmlns="http://www.w3.org/2000/svg" width="48.365" height="46.118" viewBox="0 0 48.365 46.118"><path d="M140.406,164.75q-.252.27-.63-.09-.409-.33-.126-.57.252-.27.63.09Q140.658,164.51,140.406,164.75Zm-1.322-1.831q.283.36,0,.57-.252.18-.535-.21t0-.54Q138.832,162.528,139.084,162.919Zm-1.921-1.8a.277.277,0,0,1-.409.06q-.315-.15-.22-.36.094-.15.409-.06Q137.257,160.907,137.163,161.117Zm.976,1.021q-.189.21-.5-.09-.283-.33-.063-.48.189-.18.5.09Q138.359,161.988,138.139,162.138ZM142.2,165.5q-.126.36-.6.18-.535-.12-.409-.45t.6-.21Q142.3,165.17,142.2,165.5Zm1.984.15q0,.33-.5.33-.535.06-.535-.33,0-.33.5-.33Q144.184,165.26,144.184,165.651Zm1.826-.3q.063.3-.441.42t-.567-.24q-.063-.36.441-.45Q145.948,165.02,146.011,165.351Zm30.354-28.7v28.824a8.139,8.139,0,0,1-2.661,6.11,8.953,8.953,0,0,1-6.408,2.537h-7.053a7.424,7.424,0,0,1-.771-.03,2.9,2.9,0,0,1-.614-.15.851.851,0,0,1-.5-.435,1.854,1.854,0,0,1-.157-.826V165.5a5.214,5.214,0,0,0-1.637-4.263,22.522,22.522,0,0,0,3.227-.54,13.219,13.219,0,0,0,2.96-1.171,8.726,8.726,0,0,0,2.55-2,9.141,9.141,0,0,0,1.669-3.153,14.483,14.483,0,0,0,.645-4.519,8.535,8.535,0,0,0-2.487-6.185,7.654,7.654,0,0,0-.252-6.125,4.308,4.308,0,0,0-2.55.33,17.332,17.332,0,0,0-2.9,1.321l-1.2.721a23.8,23.8,0,0,0-12.091,0q-.5-.33-1.338-.811a19.315,19.315,0,0,0-2.629-1.156,4.606,4.606,0,0,0-2.708-.405,7.728,7.728,0,0,0-.22,6.125,8.535,8.535,0,0,0-2.488,6.185,14.34,14.34,0,0,0,.645,4.5,9.5,9.5,0,0,0,1.653,3.153,8.4,8.4,0,0,0,2.535,2.012,13.218,13.218,0,0,0,2.96,1.171,22.522,22.522,0,0,0,3.227.54,4.78,4.78,0,0,0-1.543,3.093,6.458,6.458,0,0,1-1.417.45,9.332,9.332,0,0,1-1.795.15,3.833,3.833,0,0,1-2.062-.646,5.388,5.388,0,0,1-1.748-1.877,4.945,4.945,0,0,0-1.527-1.561,4.7,4.7,0,0,0-1.559-.721l-.63-.09a2.131,2.131,0,0,0-.913.135q-.252.135-.157.345a1.647,1.647,0,0,0,.283.42,2.266,2.266,0,0,0,.409.36l.22.15a3.757,3.757,0,0,1,1.37,1.141,7.455,7.455,0,0,1,.992,1.531l.315.691a3.818,3.818,0,0,0,1.385,1.847,5.019,5.019,0,0,0,2.11.9,14.081,14.081,0,0,0,2.188.21,9.706,9.706,0,0,0,1.748-.105l.724-.12q0,1.141.016,3.093t.016,2.042a1.36,1.36,0,0,1-.346,1.006,1.231,1.231,0,0,1-.693.39,8.786,8.786,0,0,1-1.039.045h-7.053a8.952,8.952,0,0,1-6.408-2.537,8.139,8.139,0,0,1-2.661-6.11V136.647a8.139,8.139,0,0,1,2.661-6.11A8.952,8.952,0,0,1,137.068,128H167.3a8.952,8.952,0,0,1,6.408,2.537A8.139,8.139,0,0,1,176.365,136.647Z" transform="translate(-128 -128)" fill="#221e41"/></svg>