<svg xmlns="http://www.w3.org/2000/svg" width="48.745" height="46.498" viewBox="0 0 48.745 46.498"><path d="M42.79,0a5.826,5.826,0,0,1,5.955,5.681V40.817A5.826,5.826,0,0,1,42.79,46.5H5.955A5.826,5.826,0,0,1,0,40.817V5.681A5.826,5.826,0,0,1,5.955,0H42.79ZM15.277,38.441v-20.5H8.133v20.5Zm25.757,0V26.686c0-6.3-3.524-9.226-8.224-9.226a7.154,7.154,0,0,0-6.438,3.384v-2.9H19.23c.095,1.924,0,20.5,0,20.5h7.142V26.993a4.46,4.46,0,0,1,.236-1.663,3.9,3.9,0,0,1,3.665-2.491c2.583,0,3.618,1.881,3.618,4.635V38.441h7.143ZM11.753,8.057c-2.444,0-4.041,1.533-4.041,3.542a3.623,3.623,0,0,0,3.947,3.542H11.7c2.491,0,4.042-1.575,4.042-3.542C15.7,9.593,14.2,8.062,11.753,8.057Z" fill="#221e41" fill-rule="evenodd"/></svg>