<svg xmlns="http://www.w3.org/2000/svg" width="1082.442" height="567.171" viewBox="0 0 1082.442 567.171"><g transform="translate(-689 -307.71)"><g transform="translate(-17 72)"><path d="M77.591,390.495,52.772,388.84l8.273,37.229,28.128-11.582Z" transform="translate(706 353)" fill="#ffb9b9"/><path d="M305.1,321l-57.911-56.257L214.1,290.391l-65.357,78.594,7.446,11.582,79.421-53.775,53.775,70.321,51.293-25.646Z" transform="translate(706 353)" fill="#2f2e41"/><path d="M305.1,321l-57.911-56.257L214.1,290.391l-65.357,78.594,7.446,11.582,79.421-53.775,53.775,70.321,51.293-25.646Z" transform="translate(706 353)" opacity="0.1"/><path d="M368.845,583.289,361.4,589.08,301.006,568.4l-14.064-5.791L258.813,568.4s0-23.165,26.474-22.337l27.3,6.618,32.265,2.482Z" transform="translate(647.219 127.94)" fill="#ffb9b9"/><path d="M363.839,419.451l-18.2,11.582h-21.51L224.024,393.8,77.591,420.278,73.454,388.84,207.478,330.1l117.478,38.883Z" transform="translate(706 353)" fill="#2f2e41"/><path d="M305.142,497.249l-12.41,2.482-2.7-3.155a16.717,16.717,0,0,1-2.26-18.355h0l34.747-45.5s9.928-22.337,25.646-13.237-13.237,23.992-13.237,23.992l-17.373,27.3,1.655,14.064Z" transform="translate(647.219 127.94)" fill="#ffb9b9"/><circle cx="32.265" cy="32.265" r="32.265" transform="translate(998.691 506.885)" fill="#ffb9b9"/><path d="M369.258,434.788l14.892,35.574,35.574-14.892s-11.582-28.128-11.582-28.956S369.258,434.788,369.258,434.788Z" transform="translate(647.219 127.94)" fill="#ffb9b9"/><path d="M467.22,540.029a185.378,185.378,0,0,1-9.091,57.337l-2.417,7.433L444.13,657.746l-12.41,3.309-9.1-11.582-18.2-13.236-13.237-21.51-11.351-18.912-3.541-5.907-12.41-62.048-47.157-26.474L301.005,498.9l3.309-9.1,14.064-19.028,14.064-1.655,4.137-3.309,3.309,1.655,13.237-7.446,4.137,1.655,24.19,2.25,14.693-3.078,21.129-11.342,8.654,1.415,29.783,24.819a185.22,185.22,0,0,1,11.508,64.289Z" transform="translate(647.219 127.94)" fill="#575a89"/><path d="M119.171,628.365s7.41-12.559,4.28-14.025-16.422-7.311-16.422-7.311l-19.492-6.46s-28.126-41.8-28.743-5.45,20.479,45.089,20.479,45.089,18.815,40.492,29.474,34.035,21.323-28.376,21.323-28.376S110.85,635.535,119.171,628.365Z" transform="translate(647.219 127.94)" fill="#2f2e41"/><path d="M399.413,307.764l-31.438,20.683-46.924,42.308-3.541-5.907-9.928-49.638h2.482l25.647-47.156Z" transform="translate(706 353)" opacity="0.1"/><path d="M335.711,263.09l-25.647,47.156h-9.1l-5.791,16.546-13.237,3.31,35.574,38.883,50.465-45.5L399.413,302.8Z" transform="translate(706 353)" fill="#575a89"/><path d="M358.64,387.219l-3.5,1.345a4.88,4.88,0,0,1-1.248-6.86l-6.46-.3a48.782,48.782,0,0,1,72.825-5.87c.294-1.013,3.5.958,4.809,2.956.44-1.648,3.446,6.32,4.509,11.953.492-1.875,2.385,1.152.727,4.057,1.051-.154,1.525,2.535.712,4.032,1.149-.54.956,2.669-.291,4.813,1.64-.146-12.935,22.476-18.837,35.7-1.714-7.873-3.64-16.164-9.166-22.029-.939-1-1.968-1.9-2.995-2.811l-5.554-4.9c-6.458-5.7-12.332-12.736-20.935-14.866-5.912-1.464-9.651-1.795-6.429-8.457-2.911,1.215-5.629,3.021-8.566,4.15C358.287,389.192,358.7,388.151,358.64,387.219Z" transform="translate(647.219 127.94)" fill="#2f2e41"/><circle cx="5.791" cy="5.791" r="5.791" transform="translate(1041.297 537.082)" fill="#ffb9b9"/><rect width="28" height="28" transform="translate(921.439 257.71)" fill="#221e41"/><rect width="28" height="28" transform="translate(921.439 257.71)" fill="#221e41"/><path d="M282.22,296.77h-34v-34h34ZM249.7,295.292h31.043V264.248H249.7Z" transform="translate(684.219 -27.06)" fill="#3f3d56"/><path d="M282.22,296.77h-34v-34h34ZM249.7,295.292h31.043V264.248H249.7Z" transform="translate(684.219 -27.06)" fill="#3f3d56"/><rect width="28" height="28" transform="translate(925.643 380.252) rotate(74.063)" fill="#221e41"/><path d="M133.243,417.876l-9.336-32.693,32.693-9.336,9.336,32.693ZM125.735,386.2l8.524,29.85,29.85-8.524-8.524-29.85Z" transform="translate(793.219 8.94)" fill="#3f3d56"/><rect width="28" height="28" transform="matrix(-0.683, 0.731, -0.731, -0.683, 826.492, 305.32)" fill="#221e41"/><path d="M112.781,277.063,136,252.222l24.841,23.215-23.215,24.841Zm23.286-22.751-21.2,22.68,22.681,21.2,21.2-22.681Z" transform="translate(674.219 52.94)" fill="#3f3d56"/><path d="M1085.01,230.422H824.843V225.06H706.872v5.362H445.63a17.6,17.6,0,0,0-17.6,17.6V604.272a17.6,17.6,0,0,0,17.6,17.6h639.38a17.6,17.6,0,0,0,17.6-17.6V248.02a17.6,17.6,0,0,0-17.6-17.6Z" transform="translate(647.219 127.94)" fill="#3f3d56"/><rect width="627.391" height="353.913" transform="translate(1098.845 389.464)" fill="#6c63ff"/><circle cx="6.435" cy="6.435" r="6.435" transform="translate(1405.569 366.942)" fill="#6c63ff"/><path d="M840.813,390.377H392.845V36.464Z" transform="translate(706 353)" opacity="0.1"/><circle cx="60.307" cy="60.307" r="60.307" transform="translate(1136.706 596.28)" fill="#f2f2f2"/><path d="M563.218,573.972a75.016,75.016,0,1,1,75.016-75.016A75.016,75.016,0,0,1,563.218,573.972Zm0-149.051a74.035,74.035,0,1,0,74.035,74.035,74.035,74.035,0,0,0-74.035-74.035Z" transform="translate(647.219 127.94)" fill="#3f3d56"/><rect width="58.605" height="12.246" transform="translate(1558.392 580.332)" fill="#3f3d56"/><rect width="200.307" height="5.248" transform="translate(1487.541 484.989)" fill="#3f3d56"/><rect width="200.307" height="5.248" transform="translate(1487.541 501.608)" fill="#3f3d56"/><rect width="200.307" height="5.248" transform="translate(1487.541 518.228)" fill="#3f3d56"/><rect width="200.307" height="5.248" transform="translate(1487.541 534.847)" fill="#3f3d56"/><rect width="200.307" height="5.248" transform="translate(1487.541 551.467)" fill="#3f3d56"/><rect width="24.492" height="24.492" transform="translate(1663.356 396.644)" fill="#f2f2f2"/><path d="M1052,304.566h-29.74v-29.74H1052Zm-28.447-1.293h27.154V276.119h-27.154Z" transform="translate(647.219 127.94)" fill="#3f3d56"/><path d="M1120.23,609H1059v-4.412a.875.875,0,0,0-.875-.875h-20.993a.875.875,0,0,0-.875.875V609H1023.13v-4.412a.875.875,0,0,0-.875-.875h-20.993a.875.875,0,0,0-.875.875V609H987.272v-4.412a.875.875,0,0,0-.875-.875H965.4a.875.875,0,0,0-.875.875V609h-13.12v-4.412a.875.875,0,0,0-.875-.875H929.541a.875.875,0,0,0-.875.875V609h-13.12v-4.412a.875.875,0,0,0-.875-.875H893.678a.875.875,0,0,0-.875.875V609H879.683v-4.412a.875.875,0,0,0-.875-.875H857.815a.875.875,0,0,0-.875.875V609H843.82v-4.412a.875.875,0,0,0-.875-.875H678.5a.875.875,0,0,0-.875.875V609h-13.12v-4.412a.875.875,0,0,0-.875-.875H642.638a.875.875,0,0,0-.875.875V609h-13.12v-4.412a.875.875,0,0,0-.875-.875H606.775a.875.875,0,0,0-.875.875V609H592.78v-4.412a.875.875,0,0,0-.875-.875H570.912a.875.875,0,0,0-.875.875V609h-13.12v-4.412a.875.875,0,0,0-.875-.875H535.049a.875.875,0,0,0-.875.875V609h-13.12v-4.412a.875.875,0,0,0-.875-.875H499.186a.875.875,0,0,0-.875.875V609h-13.12v-4.412a.875.875,0,0,0-.875-.875H463.323a.875.875,0,0,0-.875.875V609H422.212a20.993,20.993,0,0,0-20.993,20.993v9.493a20.993,20.993,0,0,0,20.993,20.993H1120.23a20.993,20.993,0,0,0,20.993-20.993v-9.492A20.993,20.993,0,0,0,1120.23,609Z" transform="translate(647.219 127.94)" fill="#3f3d56"/></g></g></svg>