<svg xmlns="http://www.w3.org/2000/svg" width="960" height="730" viewBox="0 0 960 730">
  <g id="Shopify" transform="translate(330 193)">
    <rect id="Rectangle_25" data-name="Rectangle 25" width="960" height="730" transform="translate(-330 -193)" fill="#f0fbee"/>
    <rect id="Rectangle_26" data-name="Rectangle 26" width="613" height="551" rx="275.5" transform="translate(-156 -103)" fill="#fff"/>
    <path id="Shopify-2" data-name="Shopify" d="M264.891,1403.775l11.18-290.68c5.637,5.662,12.025,12.04,12.025,12.04s26.3,1.934,27.545,2.078a3.22,3.22,0,0,1,2.995,2.795C318.871,1131.728,356,1384,356,1384Zm-14.465,3.153-.207.072L55,1370.235s25.052-194.718,26-201.6c1.251-9.031,1.551-9.317,11.136-12.327,1.551-.5,13.735-4.3,30.893-9.675,6.611-28.165,27.7-83.635,71.851-83.635,5.766,0,12.441,3.153,17.832,10.249h1.6c18.944,0,29.717,16.2,35.824,33.826,6.236-1.935,10-3.082,10.226-3.154a8.1,8.1,0,0,1,1.725-.358Zm-39.154-289.677c0-13.186-1.776-23-4.482-29.884-10.772,4.658-23.085,16.985-29.652,42.426,11.7-3.654,23.373-7.238,34.123-10.606C211.261,1118.542,211.271,1117.969,211.271,1117.251ZM193.664,1074.9c-31.705,0-49.516,41.853-57.014,67.509,8.462-2.652,17.607-5.446,26.967-8.384,6.407-33.684,21.565-50.525,35.717-57.19A9.823,9.823,0,0,0,193.664,1074.9Zm7.606,150,13.05-38.986s-8.824-5.089-26.667-5.089c-46.317,0-69.262,31.032-69.262,63.21,0,38.126,37.9,39.2,37.9,62.421a13.122,13.122,0,0,1-13.66,13.259c-14.869,0-32.486-15.193-32.486-15.193l-8.975,29.813s17.136,21,50.65,21c27.93,0,48.639-21.142,48.639-53.965,0-41.711-46.189-48.519-46.189-66.364,0-3.225,1.038-16.2,21.576-16.2A60.022,60.022,0,0,1,201.269,1224.895ZM222.834,1115.6c6.044-1.863,11.617-3.655,16.516-5.16-4.182-12.829-10.686-24.008-20.452-25.227,2.428,7.023,3.947,15.839,3.947,26.8C222.845,1113.239,222.834,1114.385,222.834,1115.6Z" transform="translate(-55 -1063)" fill="#81bf37" fill-rule="evenodd"/>
  </g>
</svg>
